# xmcd
#
# Track frame offsets: 
#        183
#        14923
#        27595
#        40388
#        51028
#        62535
#        71820
#        86123
#        98468
#        109493
#        122990
#        133995
#        147000
#        160048
#        171168
#        183830
#
# Disc length: 2611 seconds
#
# Revision: 1
# Processed by: cddbd v1.5.2PL0 Copyright (c) Steve Scherf et al.
# Submitted via: ExactAudioCopy v0.95b3
#
DISCID=e90a3110
DTITLE=Little Walter - Quarter To Twelve
DYEAR=1982
DGENRE=Blues
TTITLE0=Quarter To Twelve
TTITLE1=Mellow Down Easy
TTITLE2=Lights Out
TTITLE3=I Hate To See You Go
TTITLE4=My Baby Is Sweeter
TTITLE5=Crazy Mixed Up World
TTITLE6=Rocker
TTITLE7=Oh Baby
TTITLE8=Blue Midnight
TTITLE9=It Aint Right
TTITLE10=Who
TTITLE11=Back Track
TTITLE12=Everything Gonna Be Alright
TTITLE13=Crazy Legs
TTITLE14=Crazy For My Baby
TTITLE15=The Toodle
EXTD=YEAR: 1954
EXTT0=
EXTT1=
EXTT2=
EXTT3=
EXTT4=
EXTT5=
EXTT6=
EXTT7=
EXTT8=
EXTT9=
EXTT10=
EXTT11=
EXTT12=
EXTT13=
EXTT14=
EXTT15=
PLAYORDER=
